<svg xmlns="http://www.w3.org/2000/svg" viewBox="0 0 425.3 366.38"><defs><style>.cls-1{fill:#ea0053;}.cls-2,.cls-4{fill:#06001e;}.cls-3{fill:#ffb9b9;}.cls-4{isolation:isolate;opacity:0.1;}.cls-5{fill:#cfcce0;}</style></defs><g id="Livello_2" data-name="Livello 2"><g id="Livello_1-2" data-name="Livello 1"><g id="Illustrazione_scegli" data-name="Illustrazione scegli"><path class="cls-1" d="M105.53,117.67S60,133.34,51.32,147.8,105.53,117.67,105.53,117.67Z"/><path class="cls-2" d="M26.94,167.82a2.2,2.2,0,0,1-1.73-.64c-1.41-1.27-.26-3.68.74-5.38C39.25,139,106.17,114.94,109,113.93l6.12-2.18-5.24,3.84c-.2.14-19.66,14.39-39.59,27.82C39.32,164.28,30.12,167.82,26.94,167.82Zm76.12-49.62c-17.57,6.8-64.92,26.46-75.47,44.55-1.41,2.41-1.11,3-1.11,3,.29.31,3.88,2.23,42.53-23.78C82.48,132.92,95.77,123.45,103.06,118.2Z"/><path class="cls-1" d="M104.54,102s-41.91-4.3-54.63,3.06S104.54,102,104.54,102Z"/><path class="cls-2" d="M47.42,109.07c-14.67,0-15.68-2.36-16.14-3.43-.92-2.15,1.65-4.18,2.49-4.84,18.19-14.37,73.46.15,75.8.77l4.5,1.2-4.61.66c-.18,0-18.7,2.66-37.39,4.31C61.18,108.7,53.23,109.07,47.42,109.07ZM60.28,96.41c-10.33,0-19.79,1.5-25.33,5.87-1.68,1.33-2.09,2.22-1.92,2.61.42,1,4.48,4,38.88,1,12.81-1.13,25.55-2.73,32.31-3.62C95.56,100.23,76.8,96.41,60.28,96.41Z"/><path class="cls-1" d="M116.54,94.64S95.46,44,100.56,39,116.54,94.64,116.54,94.64Z"/><path class="cls-2" d="M117.71,99.09l-2.62-6.69c-.07-.17-6.48-16.6-11.77-33.52C92.43,24,96.9,21.07,98.36,20.09a2.46,2.46,0,0,1,2.52-.21c8.23,3.83,15.26,65.09,16,72.07ZM99.81,21.52a.73.73,0,0,0-.4.15c-5.24,3.49,5.39,37.88,14.72,62.92-3.2-25.82-9.1-60.69-14-63A.7.7,0,0,0,99.81,21.52Z"/><path class="cls-1" d="M124.51,105.77S135.83,54.6,147.68,54.6,124.51,105.77,124.51,105.77Z"/><path class="cls-2" d="M121.52,109.31l1.12-4.22c.83-3.09,20.37-75.67,41.73-75.67,2.93,0,4.19,1.37,4.73,2.52,5.7,12.07-39.62,67.7-44.81,74Zm42.85-78c-17.05,0-34,53.88-38.65,69.86,15.29-19,45.77-59.73,41.67-68.43C167.22,32.4,166.71,31.32,164.37,31.32Z"/><path class="cls-1" d="M131.15,106.28S170.06,81.7,249.77,89.2,131.15,106.28,131.15,106.28Z"/><path class="cls-2" d="M128.5,107.31l2-1.75c.41-.35,10.33-8.73,30.2-15.48,18.29-6.2,48.77-12,90.15-4.66,17.48,3.12,19.75,5.45,19.6,7.5s-.5,6.76-70.35,11.16c-34.13,2.14-68.62,3.14-69,3.15Zm84.84-23.44c-44.94,0-71.51,16-79.22,21.37,9.12-.29,37.64-1.28,65.91-3.06,64.9-4.08,68.5-8.55,68.57-9.4,0-.09-.05-2.28-18-5.49a211.22,211.22,0,0,0-37.22-3.42Z"/><path class="cls-1" d="M155.83,109.17s68.15-.91,72,6.37S155.83,109.17,155.83,109.17Z"/><path class="cls-2" d="M236.54,127.76c-21.76,0-74-15.62-81-17.72l-5.69-1.72,5.94-.14c8.72-.19,85.32-1.47,90.14,13.95a3.43,3.43,0,0,1-.75,3.66C243.82,127.18,240.75,127.76,236.54,127.76ZM162,110c32,9.37,76.36,20,81.8,14.47a1.55,1.55,0,0,0,.28-1.76C240.7,111.75,188.46,109.81,162,110Z"/><path class="cls-1" d="M142.54,116.72s41.17,19,33.12,24.88S142.54,116.72,142.54,116.72Z"/><path class="cls-2" d="M201.31,164.62c-19.91,0-60.46-47.89-62.34-50.13l-2.67-3.18,3.78,1.7c2.76,1.24,67.63,30.48,69,45.13a5.22,5.22,0,0,1-2.46,4.91A9,9,0,0,1,201.31,164.62Zm-58.1-48.09c15.66,18,50.49,53.35,62.36,45a3.31,3.31,0,0,0,1.68-3.18C206.22,147.79,163.83,126.07,143.21,116.53Z"/><path class="cls-1" d="M210.87,139.5s34.16,14.23,26.57,23.72S210.87,139.5,210.87,139.5Z"/><path class="cls-1" d="M147.29,128.11s71.17,77.82,64.53,82.56S147.29,128.11,147.29,128.11Z"/><path class="cls-1" d="M134,122.42s30,49.9,23.85,54.76S134,122.42,134,122.42Z"/><path class="cls-2" d="M167.92,195.87a3.38,3.38,0,0,1-1.1-.18c-11-3.61-33.13-68.44-35.62-75.82L129,113.31l3.9,5.73c.11.17,11.76,17.31,22.1,35.05,19.1,32.78,17.52,39.23,14.67,41.23A3,3,0,0,1,167.92,195.87Zm-32.5-69.61c8.07,22.92,24.33,65.11,32,67.63a1.21,1.21,0,0,0,1.16-.13c1.57-1.1,3.22-7.06-15.22-38.71-6.54-11.23-13.62-22.22-17.93-28.79Z"/><path class="cls-1" d="M121.32,120.52s-27,79.58-10.42,78.76S121.32,120.52,121.32,120.52Z"/><path class="cls-2" d="M104.19,212.58a7.52,7.52,0,0,1-6.64-3.38c-10.68-15.91,21-86.09,22.3-89.07l1.44-3.18.37,3.47c.3,2.84,7.15,69.81-8.37,87.7a11.82,11.82,0,0,1-8.67,4.45Zm15.91-88.32c-6.25,14.37-29.81,70.72-21,83.88a5.74,5.74,0,0,0,5.43,2.53,9.89,9.89,0,0,0,7.31-3.79C124.83,191.92,121.32,138.71,120.1,124.26Z"/><path class="cls-1" d="M112,124.48s-45.27,51.77-41.13,57.23S112,124.48,112,124.48Z"/><path class="cls-2" d="M57.26,200.58A2.63,2.63,0,0,1,55.6,200a3,3,0,0,1-1.08-2.15C53.39,185,113.65,118,116.21,115.14l6.07-6.73-4.54,7.84c-1.94,3.34-47.53,81.87-59.8,84.26A3.08,3.08,0,0,1,57.26,200.58Zm54-77c-20,22.68-55.59,65.18-54.81,74.11a1.06,1.06,0,0,0,.36.83.92.92,0,0,0,.81.11c8.48-1.65,38.12-48.92,53.64-75.05Z"/><path class="cls-1" d="M98.42,89.61S59,43,22.45,47.51,98.42,89.61,98.42,89.61Z"/><path class="cls-2" d="M103.68,91.79l-3.11-.71C100.33,91,75.38,85.3,50.72,78,.22,63.06.05,56.18,0,53.93c-.06-2.73,2.71-4.84,8.48-6.45,21.42-6,45.6,5.8,62.11,16.73a206.86,206.86,0,0,1,30.88,25.28Zm-82.94-44A43.59,43.59,0,0,0,9,49.31C4.38,50.6,1.86,52.22,1.9,53.88,2.11,63,58.12,79.24,97.73,88.47c-9.37-9-44.74-40.71-77-40.71Z"/><path class="cls-1" d="M67.57,86.36s-52.19-3.8-48.4,5.69S67.57,86.36,67.57,86.36Z"/><path class="cls-1" d="M80.86,51.24S78,38,73.27,40.81,80.86,51.24,80.86,51.24Z"/><path class="cls-1" d="M128.94,60.65s13-54.72,7.12-54.92S128.94,60.65,128.94,60.65Z"/><path class="cls-2" d="M126.51,72.76l-.1-7.27c0-2.33-.76-57.25,6.38-64.49A3,3,0,0,1,135,0a2.52,2.52,0,0,1,2,1c5.5,7-7.23,58.79-8.7,64.67ZM135,1.9c-.1,0-.38,0-.81.43-4.71,4.79-5.81,36.62-5.87,55.35,5.22-22.32,10.55-51.2,7.22-55.47A.64.64,0,0,0,135,1.9Z"/><path class="cls-1" d="M189,68.33s5.69-14.24,11.39-10.44S189,68.33,189,68.33Z"/><path class="cls-1" d="M135,194.54s-7.59,56,6.64,55S135,194.54,135,194.54Z"/><path class="cls-3" d="M174.66,181.81s-7.27-12.13-7.27-20.61c0,0-12.73-13.34-9.1-17s11.52,10.3,11.52,10.3-14.55-16.37-10.3-18.79,18.18,15.76,18.18,15.76l4.85-2.43s-10.3-25.4-3-26.06c3.33-.3,10.91,24.25,10.91,24.25l7.88,20s3,7.27,1.82,11.52a78.25,78.25,0,0,0-1.82,7.88Z"/><path class="cls-4" d="M193.45,184.84s4.24-6.67,2.71-16.85-10-15.88-10-15.88-5.46,4.24,0,15.15c0,0-6.67,6.06-1.21,15.76"/><path class="cls-3" d="M195.88,184.84s4.24-6.67,2.7-16.85-10-15.88-10-15.88-5.45,4.24,0,15.15c0,0-6.67,6.06-1.21,15.76"/><path class="cls-4" d="M179.21,151.2,175.87,146s-15.76-2.42-13.94,3,9.09,3,9.09,3l4.25,4.24Z"/><path class="cls-3" d="M181.93,150.89l-4.84-6.66s-15.76-2.43-14,3,9.1,3,9.1,3l4.24,4.24Z"/><polygon class="cls-3" points="294.38 230.6 291.34 254.85 338.62 257.88 338.62 228.78 294.38 230.6"/><path class="cls-5" d="M425.3,366.38,387,289.69c-2.29-7.58-9.44-19.93-31.67-27.87l-16.67-14.1-12.42-.45L276.49,240s-38.18-2.43-63,12.73l-6.66-3s-10.91-38.8-6.07-66.68l-27.88-2.43s-15.15,66.07-7.88,86.08,33.95,34.55,33.95,34.55l23.64,23.64,9.09,41.22H373.48l2.25-10.82,11.08,10.82Z"/><path class="cls-5" d="M371.69,228.79C327,240.84,283.14,241.7,240.18,229a11.56,11.56,0,0,1-8.5-11V92.5a11.66,11.66,0,0,1,10.09-11.32c40.53-6.35,83.47-5.86,128.38.24a11.66,11.66,0,0,1,10.33,11.35v125A11.59,11.59,0,0,1,371.69,228.79Z"/><path class="cls-2" d="M279.6,142.9s-10.28-15-4-19,15.8,7.11,15.8,7.11,11.85-10.27,18.17-6.32-6.32,18.17-6.32,18.17,9.48,2.37,10.27,8.69,3.95,22.92-9.48,23.71c-7.2.42-11.22-1.65-13.4-3.67a4.4,4.4,0,0,0-5.8-.06c-4.55,3.83-12.76,8.26-18.73-2.59C263.79,152.38,279.6,142.9,279.6,142.9Z"/><path class="cls-2" d="M355.45,144.48s10.27-15,3.95-19-15.81,7.11-15.81,7.11-11.85-10.27-18.17-6.32,6.32,18.17,6.32,18.17-9.48,2.37-10.27,8.69-4,22.92,9.48,23.71c7.2.42,11.22-1.65,13.4-3.67a4.4,4.4,0,0,1,5.8-.06c4.56,3.83,12.76,8.26,18.73-2.59C371.25,154,355.45,144.48,355.45,144.48Z"/><path class="cls-2" d="M267.13,185.51s14.82,11.93,46.42,11.18,41.83-2,48.58-9.49,8.76,1.15,6.66,6.79-4.79,15.27-20.53,16.83c-10.37,1-32.77,1.27-46.87,1.31a71.89,71.89,0,0,1-31.68-7l-.39-.19a17.94,17.94,0,0,1-10-16.08c0-2.66.46-4.09,2.2-4.62A6.27,6.27,0,0,1,267.13,185.51Z"/><path class="cls-2" d="M312.46,240.18a239.4,239.4,0,0,1-71.24-10.81A13.92,13.92,0,0,1,231.38,216V69a13.91,13.91,0,0,1,11.69-13.77c43.53-7.18,91.73-7.08,143.26.28a14,14,0,0,1,12,13.81v146.4a14,14,0,0,1-10.17,13.43,278.69,278.69,0,0,1-74.15,11ZM310.79,51a414.06,414.06,0,0,0-67.55,5.3A12.88,12.88,0,0,0,232.41,69V216a12.89,12.89,0,0,0,9.12,12.35c46,14.34,95.28,14.26,146.31-.22l.14.5-.14-.5a13,13,0,0,0,9.42-12.44V69.33a13,13,0,0,0-11.08-12.8A534.33,534.33,0,0,0,310.79,51Z"/><path class="cls-2" d="M307.62,72.76c-11.35,0-21.06-.51-29-1.2C253.59,69.39,240.11,65,240,65l.32-1c.13,0,13.53,4.39,38.44,6.55,23,2,60.77,2.46,110.19-6.57l.18,1A453.92,453.92,0,0,1,307.62,72.76Z"/></g></g></g></svg>