<svg xmlns="http://www.w3.org/2000/svg" viewBox="0 0 304.9 381.52"><defs><style>.cls-1{fill:#06001e;}.cls-2{fill:#fff;}.cls-3{fill:#ea0053;}.cls-4{fill:#e6e6e6;}</style></defs><g id="Livello_2" data-name="Livello 2"><g id="Livello_3" data-name="Livello 3"><g id="Illustrazione_paga" data-name="Illustrazione paga"><path class="cls-1" d="M249.44,90.66h-2.09V33.24A33.24,33.24,0,0,0,214.11,0H92.44A33.24,33.24,0,0,0,59.21,33.24h0v315a33.24,33.24,0,0,0,33.23,33.24H214.11a33.24,33.24,0,0,0,33.24-33.24h0V131.54h2.09Z"/><path class="cls-2" d="M215.2,9.43H199.32A11.79,11.79,0,0,1,188.4,25.68H118.7a11.79,11.79,0,0,1-11.79-11.79,12,12,0,0,1,.87-4.46H93A24.82,24.82,0,0,0,68.13,34.25V348.84A24.82,24.82,0,0,0,93,373.66H215.2A24.82,24.82,0,0,0,240,348.84V34.25A24.82,24.82,0,0,0,215.2,9.43Zm-2.67,145.94a6.44,6.44,0,0,1-6.43,6.43H175a6.44,6.44,0,0,1-6.43-6.43v-1.61a6.46,6.46,0,0,1,6.43-6.43H206.1a6.46,6.46,0,0,1,6.43,6.43ZM216,127a6.46,6.46,0,0,1-6.43,6.43H98.15A6.46,6.46,0,0,1,91.72,127v-1.61a6.44,6.44,0,0,1,6.43-6.43H209.59a6.45,6.45,0,0,1,6.43,6.43Zm0-28.4a6.45,6.45,0,0,1-6.43,6.43H98.15a6.44,6.44,0,0,1-6.43-6.43V97a6.45,6.45,0,0,1,6.43-6.43H209.59A6.46,6.46,0,0,1,216,97Zm0-28.4a6.45,6.45,0,0,1-6.43,6.43H98.15a6.44,6.44,0,0,1-6.43-6.43v-1.6a6.44,6.44,0,0,1,6.43-6.43H209.59A6.45,6.45,0,0,1,216,68.58Z"/><circle class="cls-2" cx="100.56" cy="126.44" r="3.75"/><circle class="cls-2" cx="112.88" cy="126.44" r="3.75"/><circle class="cls-2" cx="125.2" cy="126.44" r="3.75"/><circle class="cls-2" cx="137.53" cy="126.44" r="3.75"/><circle class="cls-2" cx="177.71" cy="154.84" r="3.75"/><circle class="cls-2" cx="190.03" cy="154.84" r="3.75"/><circle class="cls-2" cx="202.35" cy="154.84" r="3.75"/><path class="cls-3" d="M216.88,203.43H89.79a11.26,11.26,0,0,0-11.26,11.26v61.92a11.26,11.26,0,0,0,11.26,11.26H216.88a11.26,11.26,0,0,0,11.26-11.26V214.69a11.26,11.26,0,0,0-11.26-11.26ZM86.64,211.11c.25-.05,6.2-1.06,11.13,1.91s6.82,8.69,6.9,8.93l.2.62-.64.12a17,17,0,0,1-2.76.2,16.34,16.34,0,0,1-8.37-2.11c-4.93-3-6.82-8.7-6.9-8.94l-.2-.62Zm27.59,57.49H91.56a6.24,6.24,0,0,1,0-12.47h22.67a6.24,6.24,0,0,1,0,12.47Zm103.14-1.13a6.83,6.83,0,0,1-6.8,6.8h-17a6.83,6.83,0,0,1-6.8-6.8V257.26a6.83,6.83,0,0,1,6.8-6.8h17a6.83,6.83,0,0,1,6.8,6.8Z"/><path class="cls-1" d="M199.05,265.36h-6.84a1.84,1.84,0,1,0,0,3.68h6.84a1.84,1.84,0,0,0,0-3.68Z"/><path class="cls-1" d="M211.67,265.36h-6.84a1.84,1.84,0,1,0,0,3.68h6.84a1.84,1.84,0,1,0,0-3.68Z"/><path class="cls-1" d="M199.05,260.17h-6.84a1.84,1.84,0,1,0,0,3.68h6.84a1.84,1.84,0,0,0,0-3.68Z"/><path class="cls-1" d="M211.67,260.17h-6.84a1.84,1.84,0,1,0,0,3.68h6.84a1.84,1.84,0,1,0,0-3.68Z"/><path class="cls-1" d="M199.05,255.08h-6.84a1.84,1.84,0,0,0,0,3.68h6.84a1.84,1.84,0,0,0,0-3.68Z"/><path class="cls-1" d="M211.67,255.08h-6.84a1.84,1.84,0,0,0,0,3.68h6.84a1.84,1.84,0,1,0,0-3.68Z"/><rect class="cls-4" x="288.33" y="226.75" width="16.58" height="16.58"/><path class="cls-1" d="M268.79,236.82H296v27.23H268.79Zm26,1.18H270v24.87h24.87Z"/><rect class="cls-4" y="89.99" width="16.58" height="16.58"/><path class="cls-1" d="M36.11,96.5H8.88V69.27H36.11Zm-26-1.18H34.93V70.45H10.06Z"/></g></g></g></svg>