<svg xmlns="http://www.w3.org/2000/svg" xmlns:xlink="http://www.w3.org/1999/xlink" viewBox="0 0 281.57 370.63"><defs><style>.cls-1{fill:none;}.cls-2{clip-path:url(#clip-path);}.cls-3{fill:#06001e;}.cls-4{fill:#ea0053;}.cls-5{fill:#fff;}.cls-6{isolation:isolate;}.cls-7{clip-path:url(#clip-path-2);}</style><clipPath id="clip-path" transform="translate(0 0)"><rect class="cls-1" width="281.57" height="370.63"/></clipPath><clipPath id="clip-path-2" transform="translate(0 0)"><rect class="cls-1" x="235.18" y="154.1" width="30.2" height="34.57"/></clipPath></defs><g id="Livello_2" data-name="Livello 2"><g id="Livello_2-2" data-name="Livello 2"><g id="Illustrazione_personalizza" data-name="Illustrazione personalizza"><g class="cls-2"><path class="cls-3" d="M225.1,15.28V355.36a15.29,15.29,0,0,1-15.28,15.27H71.75A15.26,15.26,0,0,1,56.47,355.4V15.28A15.28,15.28,0,0,1,71.75,0H92.42V2.65A12.59,12.59,0,0,0,105,15.24h70.22a12.54,12.54,0,0,0,7.46-2.46,11.09,11.09,0,0,0,1.23-1,12.55,12.55,0,0,0,3.89-9.09V0h22A15.28,15.28,0,0,1,225.1,15.27Z" transform="translate(0 0)"/><rect class="cls-4" x="76.66" y="122.59" width="128.26" height="97.58"/><polygon class="cls-4" points="62.57 221.44 0 216.23 0 124.46 62.57 121.33 62.57 221.44"/><polygon class="cls-4" points="219 221.44 281.57 216.23 281.57 124.46 219 121.33 219 221.44"/><path class="cls-4" d="M140.79,234.34a15.22,15.22,0,1,1-15.22,15.22,15.22,15.22,0,0,1,15.22-15.22" transform="translate(0 0)"/><polygon class="cls-5" points="150.37 248.06 142.29 248.06 142.29 239.98 139.28 239.98 139.28 248.06 131.21 248.06 131.21 251.06 139.28 251.06 139.28 259.14 142.29 259.14 142.29 251.06 150.37 251.06 150.37 248.06"/><polygon class="cls-5" points="188.77 250.08 180.9 246.41 180.9 248.51 162.54 248.51 162.54 251.66 180.9 251.66 180.9 253.76 188.77 250.08"/><polygon class="cls-5" points="92.8 250.08 100.67 246.41 100.67 248.51 119.03 248.51 119.03 251.66 100.67 251.66 100.67 253.76 92.8 250.08"/><rect class="cls-5" x="90.42" y="49.67" width="100.73" height="1.05"/><rect class="cls-5" x="90.66" y="336.13" width="100.73" height="1.05"/><path class="cls-5" d="M141.93,181.37,165.47,155a1.14,1.14,0,0,0-.85-1.91h-12l9.07-11.49a1.15,1.15,0,1,0-1.8-1.42l-10.18,12.91H117a1.15,1.15,0,0,0-.85,1.92l23.54,26.16v19.51h-7.85a1.15,1.15,0,0,0,0,2.29h18a1.15,1.15,0,1,0,0-2.29h-7.84V181.37ZM149,170l-8.14,9.1-8.19-9.1Zm13.06-14.62-11,12.33h-9.93l9.72-12.33Zm-14.15,0-9.71,12.33h-7.59l-11.09-12.33Z" transform="translate(0 0)"/><polygon class="cls-5" points="247.15 162.59 247.51 162.91 249.19 164.39 248.57 165.21 246.89 163.73 246.52 163.42 247.15 162.59"/><polygon class="cls-5" points="250.21 165.29 252.25 167.09 251.63 167.91 249.59 166.11 250.21 165.29"/><g class="cls-6"><g class="cls-7"><polygon class="cls-5" points="253.78 168.44 255.81 170.24 255.19 171.06 253.16 169.26 253.78 168.44"/><path class="cls-5" d="M261.6,161.75l3.79,3.34-17.76,23.58-3.78-3.33.31-.42a2.93,2.93,0,0,0,.66-2.33,3.11,3.11,0,0,0-3.57-3.15,2.52,2.52,0,0,0-2,1.17L239,181l-3.78-3.34,17.76-23.58,3.78,3.34-.31.41a2.94,2.94,0,0,0-.66,2.33,3.1,3.1,0,0,0,3.57,3.15,2.53,2.53,0,0,0,2-1.16Zm-3.35,12,.62-.83-.36-.32,5.53-7.34-2.35-2.08a3.39,3.39,0,0,1-2.3,1.17,4.48,4.48,0,0,1-4-6.73L253,155.56l-5.53,7.35-.36-.32-.63.83.37.31L236.52,177.5l2.36,2.07a3.32,3.32,0,0,1,2.3-1.16c2.44-.35,4.4,1.39,4.58,4.05a4,4,0,0,1-.58,2.67l2.35,2.08,10.36-13.76.36.32" transform="translate(0 0)"/></g></g><polygon class="cls-5" points="256.84 171.14 258.51 172.62 258.87 172.94 258.25 173.76 257.89 173.45 256.21 171.97 256.84 171.14"/><path class="cls-5" d="M40.71,157.82a.82.82,0,0,1,.66.27,1.07,1.07,0,0,1,0,1.44l-18.8,20.89a1,1,0,0,1-.67.33.81.81,0,0,1-.66-.26,1.07,1.07,0,0,1,0-1.44L40,158.15a1,1,0,0,1,.68-.33" transform="translate(0 0)"/><path class="cls-5" d="M29.1,159.7a5.35,5.35,0,0,1-.14,7.14,4.83,4.83,0,0,1-3.33,1.65,4.2,4.2,0,0,1-3.27-1.3,5.35,5.35,0,0,1,.14-7.14,4.83,4.83,0,0,1,3.33-1.65,4.2,4.2,0,0,1,3.27,1.3m-1.44,5.77a3.19,3.19,0,0,0,.08-4.25,2.51,2.51,0,0,0-1.95-.78,2.9,2.9,0,0,0-2,1,3.18,3.18,0,0,0-.08,4.25,2.49,2.49,0,0,0,1.94.78,2.94,2.94,0,0,0,2-1" transform="translate(0 0)"/><path class="cls-5" d="M40.21,171.39a5.34,5.34,0,0,1-.14,7.13,4.85,4.85,0,0,1-3.33,1.66,4.15,4.15,0,0,1-3.26-1.31,5.34,5.34,0,0,1,.14-7.14,4.76,4.76,0,0,1,3.32-1.65,4.13,4.13,0,0,1,3.27,1.31m-1.44,5.76a3.19,3.19,0,0,0,.08-4.25,2.48,2.48,0,0,0-2-.77,2.83,2.83,0,0,0-2,1,3.2,3.2,0,0,0-.08,4.26,2.51,2.51,0,0,0,1.95.75,2.88,2.88,0,0,0,2-1" transform="translate(0 0)"/></g></g></g></g></svg>